<svg width="24" height="24" viewBox="0 0 24 24" fill="#fff" xmlns="http://www.w3.org/2000/svg" aria-hidden="true"><path clip-rule="evenodd" d="M12 14H17.6714C17.4429 15.4714 15.9571 18.3143 12 18.3143C8.58571 18.3143 5.8 15.4857 5.8 12C5.8 8.51429 8.58571 5.68571 12 5.68571C13.9429 5.68571 15.2429 6.51429 15.9857 7.22857L18.7 4.61429C16.9571 2.98571 14.7 2 12 2C6.47143 2 2 6.47143 2 12C2 17.5286 6.47143 22 12 22C17.7714 22 21.6 17.9429 21.6 12.2286C21.6 11.5714 21.5286 11.0714 21.4429 10.5714H12V14Z" fill="#fff"></path></svg>
